<?xml version="1.0" standalone="no"?>
<!DOCTYPE svg PUBLIC "-//W3C//DTD SVG 20010904//EN"
 "http://www.w3.org/TR/2001/REC-SVG-20010904/DTD/svg10.dtd">
<svg version="1.0" xmlns="http://www.w3.org/2000/svg"
 width="260.000000pt" height="260.000000pt" viewBox="0 0 260.000000 260.000000"
 preserveAspectRatio="xMidYMid meet">
<metadata>
Created by potrace 1.11, written by Peter Selinger 2001-2013
</metadata>
<g transform="translate(0.000000,260.000000) scale(0.100000,-0.100000)"
fill="#000000" stroke="none">
<path d="M1985 2190 c-3 -5 1 -10 9 -10 9 0 16 5 16 10 0 6 -4 10 -9 10 -6 0
-13 -4 -16 -10z"/>
<path d="M1603 2114 c-27 -31 -36 -35 -65 -30 -109 18 -125 18 -193 -4 -61
-19 -97 -22 -285 -25 -202 -3 -256 -7 -305 -22 -47 -14 -151 -66 -162 -81 -12
-14 -14 -14 -26 3 -16 20 -39 13 -31 -10 7 -18 -22 -50 -31 -35 -4 6 -17 3
-35 -10 -15 -11 -32 -20 -37 -20 -5 0 -42 -20 -82 -45 -91 -56 -126 -72 -175
-83 -33 -6 -41 -13 -52 -42 -7 -19 -13 -47 -13 -62 -1 -15 -5 -30 -11 -33 -5
-3 -10 -21 -10 -39 0 -18 -3 -36 -7 -40 -4 -3 -8 -19 -9 -34 -1 -15 -16 -53
-32 -85 -35 -67 -43 -164 -16 -205 8 -12 12 -28 8 -34 -4 -6 1 -17 10 -24 10
-7 19 -18 20 -26 1 -7 16 -35 34 -62 43 -67 55 -109 49 -170 -4 -47 -2 -54 31
-94 41 -50 78 -72 122 -72 38 0 71 -17 158 -80 53 -38 78 -50 122 -55 87 -12
138 -8 167 10 18 12 27 14 33 6 4 -7 11 -11 16 -10 26 5 25 -4 -1 -16 -37 -16
-42 -16 175 -19 91 -1 176 -6 190 -10 19 -5 21 -5 10 3 -12 8 -12 11 -1 11 7
0 11 6 8 14 -4 11 -1 13 11 9 30 -12 83 -45 78 -50 -2 -3 -16 3 -30 12 -24 16
-46 14 -46 -6 0 -5 6 -9 14 -9 8 0 30 -9 49 -20 34 -20 75 -35 127 -47 63 -14
240 -5 320 17 19 5 55 14 80 21 25 6 50 18 57 26 6 8 17 13 25 12 20 -4 59 11
53 21 -3 4 14 17 38 28 46 22 227 168 227 182 0 5 -7 7 -15 4 -25 -10 -18 34
8 49 12 8 54 33 93 56 65 38 192 157 180 169 -3 2 10 34 29 71 19 36 33 75 31
86 -6 36 16 69 44 67 3 0 7 11 8 26 1 24 0 25 -12 10 -12 -16 -14 -16 -24 8
-15 33 -15 34 6 34 10 0 28 7 40 16 27 19 31 81 6 91 -11 4 -14 13 -9 32 11
38 10 98 -2 113 -5 7 -10 24 -11 37 -1 33 -20 50 -32 31 -7 -10 -8 0 -4 31 5
38 3 50 -12 65 -11 11 -18 27 -16 37 2 10 0 17 -5 16 -19 -3 -27 2 -15 9 9 7
10 15 3 35 -8 21 -7 28 5 35 12 7 11 11 -7 28 -16 14 -23 15 -26 7 -7 -21 -22
-15 -37 16 -23 44 -94 93 -117 80 -15 -8 -20 -5 -25 15 -5 21 -10 23 -42 20
-45 -6 -76 10 -52 26 12 8 9 10 -12 10 -16 0 -31 1 -35 2 -5 1 -24 5 -43 9
-85 20 -218 22 -288 4 -67 -17 -68 -17 -109 4 -23 11 -44 21 -45 20 -2 0 -17
-16 -35 -35z m55 -66 c2 -10 -31 -64 -72 -120 -42 -57 -125 -170 -186 -253
l-111 -150 74 -5 c80 -5 107 -19 107 -56 0 -43 -47 -128 -118 -216 -55 -66
-67 -88 -56 -92 9 -3 55 -6 104 -6 67 0 92 -4 104 -16 37 -36 22 -61 -191
-317 -68 -82 -135 -166 -148 -187 -13 -21 -28 -40 -32 -43 -15 -9 -53 12 -53
28 0 14 39 78 76 125 33 42 167 202 212 255 29 33 52 65 52 70 0 6 -26 11 -57
13 -115 6 -153 27 -153 86 0 20 55 107 80 126 16 12 88 117 95 138 7 24 4 25
-70 24 -74 -2 -104 7 -111 33 -3 13 0 34 6 47 16 29 149 213 184 253 15 17 61
82 103 145 42 63 84 121 92 128 22 17 65 11 69 -10z m-524 -94 c9 -3 16 -14
16 -24 0 -22 32 -113 59 -170 33 -69 25 -98 -22 -86 -17 4 -33 29 -65 105 -60
143 -56 201 12 175z m-534 -198 c0 -45 2 -85 5 -88 3 -3 27 -1 53 4 26 5 55
10 65 11 9 1 17 4 18 7 0 3 1 32 3 66 3 70 10 85 37 81 29 -5 36 -21 34 -77
-1 -28 2 -51 7 -51 20 -3 36 -2 93 6 82 12 78 12 99 5 22 -8 29 -35 13 -48 -7
-5 -51 -15 -99 -22 -48 -7 -92 -16 -98 -20 -6 -4 -14 -43 -17 -86 -6 -88 -19
-110 -57 -93 -20 9 -21 16 -18 86 l4 76 -49 -8 c-26 -4 -55 -8 -63 -10 -19 -3
-21 -42 -5 -117 13 -64 9 -76 -24 -83 -18 -3 -25 3 -36 29 -15 35 -23 74 -24
119 -1 32 -22 35 -110 12 -112 -29 -171 -25 -171 11 0 8 15 21 34 29 33 14 42
16 121 30 22 4 57 11 78 16 l37 10 0 94 c0 79 3 96 17 104 11 6 24 6 35 0 15
-8 18 -23 18 -93z m1555 -35 c52 -23 67 -51 66 -123 0 -63 -15 -114 -68 -238
-59 -137 -77 -201 -60 -217 7 -6 57 -14 116 -17 65 -3 107 -9 112 -17 8 -13 1
-40 -14 -50 -14 -10 -168 -3 -214 10 -95 26 -106 68 -53 211 34 91 34 86 -16
118 -5 4 -20 21 -32 39 -30 42 -29 114 2 211 7 20 5 23 -15 20 -23 -3 -42 -49
-53 -132 -27 -195 -27 -196 -53 -202 -51 -13 -57 22 -28 166 2 14 7 39 10 55
3 17 13 60 21 97 17 71 22 75 99 91 42 8 138 -3 180 -22z m-374 -71 c-8 -63
-6 -363 3 -450 14 -140 14 -145 -11 -148 -47 -7 -70 103 -77 384 -6 204 9 260
69 252 17 -3 19 -9 16 -38z m-1128 -309 c21 -2 3 -63 -31 -102 -14 -17 -16
-43 -14 -193 3 -164 2 -175 -16 -185 -14 -7 -24 -7 -37 3 -15 11 -18 30 -20
120 -1 59 -5 109 -8 112 -3 3 -13 -9 -23 -28 -26 -52 -64 -65 -83 -30 -8 15 3
38 56 118 100 150 133 192 152 189 9 -2 19 -4 24 -4z m163 -11 c5 -5 7 -43 4
-85 -4 -56 -2 -75 8 -75 7 0 42 18 79 41 86 51 118 59 128 29 9 -30 -10 -49
-112 -106 -47 -26 -91 -54 -99 -62 -18 -17 -18 -63 -1 -87 21 -28 54 -13 124
54 46 45 67 58 82 54 12 -3 21 -8 22 -12 0 -3 2 -14 4 -24 2 -11 -19 -40 -56
-77 -73 -73 -120 -91 -182 -69 -59 20 -78 62 -78 171 0 74 8 184 17 228 1 8 3
18 3 23 1 10 45 9 57 -3z m-606 -350 c-20 -12 -33 -1 -19 16 9 11 15 12 23 4
8 -8 7 -13 -4 -20z m17 -62 c-3 -8 -6 -5 -6 6 -1 11 2 17 5 13 3 -3 4 -12 1
-19z m123 -12 c0 -2 -7 -7 -16 -10 -8 -3 -12 -2 -9 4 6 10 25 14 25 6z m1167
-70 c21 -18 52 -40 69 -49 48 -25 52 -55 11 -70 -22 -8 -43 2 -114 55 -53 38
-64 63 -41 86 19 19 35 14 75 -22z m563 -85 c-13 -11 -29 -17 -34 -13 -6 3 3
12 19 18 41 18 44 17 15 -5z m-135 -1 c-3 -5 -11 -10 -16 -10 -6 0 -7 5 -4 10
3 6 11 10 16 10 6 0 7 -4 4 -10z m85 -60 c-6 -11 -16 -17 -22 -14 -7 5 -5 12
7 21 25 18 28 17 15 -7z m-50 -34 c0 -3 -4 -8 -10 -11 -5 -3 -10 -1 -10 4 0 6
5 11 10 11 6 0 10 -2 10 -4z m-634 -154 c-5 -4 -66 26 -66 33 0 3 16 -3 35
-12 19 -9 33 -18 31 -21z"/>
<path d="M2071 1637 c-19 -53 -24 -126 -11 -157 17 -41 37 -45 55 -10 9 17 13
30 9 30 -4 0 -2 6 4 13 6 7 14 35 17 62 6 42 4 53 -12 66 -35 31 -51 30 -62
-4z"/>
<path d="M2528 1838 c9 -9 15 -9 24 0 9 9 7 12 -12 12 -19 0 -21 -3 -12 -12z"/>
<path d="M57 1033 c-7 -39 5 -54 15 -18 4 16 4 33 -1 38 -5 5 -11 -4 -14 -20z"/>
<path d="M1803 489 c-64 -12 -90 -32 -33 -24 61 9 80 15 80 26 0 5 -1 9 -2 8
-2 -1 -22 -5 -45 -10z"/>
<path d="M1513 433 c4 -3 27 -7 53 -9 26 -2 44 -1 41 3 -4 3 -28 7 -53 9 -26
2 -44 1 -41 -3z"/>
</g>
</svg>
